<?xml version="1.0" standalone="no"?>
<!DOCTYPE svg PUBLIC "-//W3C//DTD SVG 20010904//EN"
 "http://www.w3.org/TR/2001/REC-SVG-20010904/DTD/svg10.dtd">
<svg version="1.0" xmlns="http://www.w3.org/2000/svg"
 width="1024.000000pt" height="1024.000000pt" viewBox="0 0 1024.000000 1024.000000"
 preserveAspectRatio="xMidYMid meet">
<metadata>
Created by potrace 1.14, written by Peter Selinger 2001-2017
</metadata>
<g transform="translate(0.000000,1024.000000) scale(0.100000,-0.100000)"
fill="#000000" stroke="none">
<path d="M4925 8353 c-941 -57 -1806 -478 -2422 -1176 -176 -199 -308 -386
-438 -621 -451 -808 -560 -1765 -305 -2659 172 -601 507 -1150 966 -1586 194
-184 375 -321 643 -486 147 -90 166 -106 169 -131 3 -28 3 -28 -12 -9 -14 19
-15 18 -4 -12 7 -18 15 -28 19 -22 3 6 6 -2 5 -18 0 -15 3 -41 7 -58 5 -22 5
-26 -3 -15 -17 26 -11 -4 10 -48 11 -22 20 -50 20 -61 0 -22 30 -45 71 -55 47
-11 372 -55 484 -65 486 -47 1492 -44 1970 4 250 26 368 45 393 63 14 9 34 22
46 29 11 7 25 18 31 26 5 8 21 18 35 22 14 4 37 18 52 31 16 12 37 25 48 29
11 3 20 15 20 25 0 13 5 17 15 14 14 -6 21 16 16 54 -1 8 7 16 18 19 16 4 19
11 14 34 -3 18 -1 29 6 29 6 0 11 7 11 16 0 8 7 23 16 31 13 13 13 18 2 25
-13 10 -8 9 40 -8 14 -6 13 -4 -3 10 -14 12 -16 19 -7 22 42 18 421 284 468
329 6 5 40 35 75 64 250 213 526 542 710 846 426 706 593 1545 468 2350 -40
263 -119 538 -236 825 -312 767 -936 1424 -1703 1792 -530 255 -1142 376
-1715 341z m-607 -948 c74 -33 142 -103 160 -163 44 -145 -22 -313 -187 -485
-288 -299 -767 -441 -1024 -304 -106 56 -147 126 -147 249 0 249 291 550 660
682 128 46 193 56 340 53 124 -3 140 -5 198 -32z m965 -1969 c372 -71 637
-391 637 -770 0 -122 -48 -285 -117 -400 -47 -77 -181 -211 -256 -255 -101
-59 -242 -101 -359 -107 -239 -13 -420 58 -593 231 -77 76 -98 105 -137 185
-68 138 -83 200 -82 355 0 93 5 149 18 194 62 228 222 417 428 510 149 66 309
86 461 57z m2777 -1010 c0 -25 -50 -257 -76 -354 -184 -680 -646 -1304 -1259
-1703 -429 -279 -959 -455 -1432 -475 -70 -3 -146 -7 -168 -9 -72 -6 -367 15
-503 36 -526 81 -1024 305 -1440 647 -456 374 -795 880 -966 1445 -37 124 -86
331 -86 367 0 21 3 22 43 16 498 -80 1163 -148 1690 -172 l148 -7 31 -61 c118
-234 323 -439 556 -555 112 -56 258 -99 397 -117 327 -42 651 50 920 261 126
98 233 230 327 400 l44 80 244 17 c616 42 1149 109 1420 177 93 23 110 25 110
7z"/>
<path d="M5023 5255 c-218 -47 -393 -213 -454 -430 -21 -74 -18 -247 5 -315
101 -299 376 -470 673 -417 127 23 222 74 314 167 184 185 226 442 113 678
-50 105 -159 214 -264 266 -127 62 -257 79 -387 51z m260 -60 c165 -43 309
-176 369 -340 33 -93 37 -232 7 -330 -49 -166 -173 -298 -336 -357 -71 -26
-216 -35 -296 -18 -184 38 -346 191 -401 379 -20 67 -21 217 -2 287 32 123
134 257 241 320 122 71 284 94 418 59z"/>
<path d="M6810 1690 c0 -5 7 -10 15 -10 8 0 15 5 15 10 0 6 -7 10 -15 10 -8 0
-15 -4 -15 -10z"/>
<path d="M3520 1621 c0 -6 4 -13 10 -16 6 -3 7 1 4 9 -7 18 -14 21 -14 7z"/>
<path d="M6770 1590 c0 -5 5 -10 10 -10 6 0 10 5 10 10 0 6 -4 10 -10 10 -5 0
-10 -4 -10 -10z"/>
</g>
</svg>
